<svg width="92" height="28" viewBox="0 0 92 28" fill="none" xmlns="http://www.w3.org/2000/svg">
<path d="M56.8294 22.1355C51.5671 25.9596 43.9398 27.9998 37.3728 27.9998C28.1649 27.9998 19.8754 24.6421 13.604 19.0576C13.1113 18.6185 13.5528 18.02 14.144 18.362C20.912 22.2443 29.2804 24.5799 37.9247 24.5799C43.7546 24.5799 50.1678 23.3908 56.0647 20.923C56.9555 20.5499 57.7005 21.4982 56.8294 22.1355Z" fill="#FF9900"/>
<path d="M58.5708 19.3232C57.9369 18.4979 54.3647 18.9333 52.7613 19.1264C52.2728 19.1869 52.1982 18.7553 52.6382 18.4449C55.4833 16.4118 60.1518 16.9987 60.6962 17.6801C61.2406 18.3654 60.5545 23.1167 57.8809 25.3845C57.4708 25.7328 57.0792 25.5473 57.2619 25.0854C57.8623 23.5635 59.2084 20.1523 58.5708 19.3232Z" fill="#FF9900"/>
<path d="M52.8668 3.7207V1.72276C52.8668 1.42039 53.101 1.21753 53.382 1.21753H62.504C62.7967 1.21753 63.0309 1.42421 63.0309 1.72276V3.43364C63.027 3.7207 62.7811 4.09579 62.3439 4.68905L57.6171 11.3068C59.3735 11.2647 61.2276 11.5211 62.8201 12.4014C63.1792 12.6004 63.2768 12.8913 63.3041 13.1784V15.3103C63.3041 15.6012 62.9762 15.9418 62.6328 15.7658C59.8263 14.3228 56.0987 14.1659 52.9956 15.7811C52.6794 15.9495 52.3477 15.6127 52.3477 15.3218V13.297C52.3477 12.9717 52.3516 12.4167 52.6833 11.923L58.1596 4.2221H53.3937C53.101 4.2221 52.8668 4.01924 52.8668 3.7207Z" fill="#221F1F"/>
<path d="M19.0214 17.0435H16.3102C16.0509 17.0237 15.845 16.8208 15.8259 16.5622V2.04504C15.8259 1.75461 16.0585 1.52387 16.3483 1.52387H18.8765C19.1396 1.53579 19.3493 1.74665 19.3684 2.00923V3.90692H19.4179C20.0776 2.07288 21.3169 1.21753 22.9871 1.21753C24.6839 1.21753 25.744 2.07288 26.5066 3.90692C27.1625 2.07288 28.6534 1.21753 30.2511 1.21753C31.3875 1.21753 32.6306 1.70687 33.3894 2.8049C34.2473 4.02627 34.0719 5.80063 34.0719 7.35618L34.0681 16.5184C34.0681 16.8088 33.8355 17.0435 33.5457 17.0435H30.8384C30.5676 17.0237 30.3503 16.7969 30.3503 16.5184V8.8242C30.3503 8.21153 30.4037 6.68383 30.274 6.10299C30.0719 5.12828 29.4656 4.85377 28.6801 4.85377C28.0243 4.85377 27.3379 5.31129 27.0595 6.04331C26.7812 6.77533 26.8079 8.00067 26.8079 8.8242V16.5184C26.8079 16.8088 26.5752 17.0435 26.2854 17.0435H23.5781C23.3036 17.0237 23.09 16.7969 23.09 16.5184L23.0862 8.8242C23.0862 7.205 23.3417 4.82195 21.416 4.82195C19.4675 4.82195 19.5438 7.14532 19.5438 8.8242V16.5184C19.5438 16.8088 19.3112 17.0435 19.0214 17.0435Z" fill="#221F1F"/>
<path d="M71.1631 1.21753C75.5425 1.21753 77.9127 4.75437 77.9127 9.25155C77.9127 13.5965 75.2934 17.0435 71.1631 17.0435C66.8627 17.0435 64.5215 13.5067 64.5215 9.09931C64.5215 4.66459 66.8917 1.21753 71.1631 1.21753ZM71.1881 4.12586C69.0129 4.12586 68.8759 6.91318 68.8759 8.65037C68.8759 10.3915 68.8469 14.1079 71.1631 14.1079C73.4504 14.1079 73.5583 11.1098 73.5583 9.28278C73.5583 8.08041 73.5043 6.64382 73.1183 5.5039C72.7862 4.51234 72.1262 4.12586 71.1881 4.12586Z" fill="#221F1F"/>
<path d="M82.6185 17.0435H79.6678C79.3718 17.0237 79.1343 16.7969 79.1343 16.5184L79.1301 1.99729C79.1551 1.73074 79.401 1.52387 79.7011 1.52387H82.4476C82.706 1.53579 82.9186 1.70289 82.9769 1.92966V4.1496H83.0311C83.8605 2.16439 85.0233 1.21753 87.0696 1.21753C88.3991 1.21753 89.6952 1.67504 90.5288 2.92823C91.304 4.08992 91.304 6.04331 91.304 7.44768V16.586C91.2706 16.8406 91.0247 17.0435 90.733 17.0435H87.7614C87.4905 17.0237 87.2655 16.8327 87.2363 16.586V8.70087C87.2363 7.1135 87.428 4.79012 85.3817 4.79012C84.6607 4.79012 83.998 5.25161 83.6687 5.95181C83.252 6.83899 83.1978 7.72219 83.1978 8.70087V16.5184C83.1936 16.8088 82.9352 17.0435 82.6185 17.0435Z" fill="#221F1F"/>
<path d="M45.5255 9.52215V8.87616C43.3164 8.87616 40.9826 9.33759 40.9826 11.8796C40.9826 13.1674 41.666 14.0399 42.8393 14.0399C43.6989 14.0399 44.4682 13.524 44.9539 12.685C45.5556 11.6531 45.5255 10.6841 45.5255 9.52215ZM48.607 16.7917C48.405 16.9679 48.1128 16.9805 47.885 16.863C46.8707 16.0408 46.6902 15.6591 46.1315 14.8747C44.4553 16.5442 43.2691 17.0434 41.0944 17.0434C38.5243 17.0434 36.5215 15.4955 36.5215 12.3956C36.5215 9.97519 37.8667 8.32664 39.7793 7.52125C41.4382 6.80813 43.7548 6.68229 45.5255 6.48513V6.09921C45.5255 5.39029 45.5813 4.55134 45.1559 3.9389C44.7819 3.38938 44.0685 3.16287 43.441 3.16287C42.2763 3.16287 41.2362 3.74594 40.9826 4.95404C40.9311 5.2225 40.7291 5.48678 40.454 5.49936L37.4885 5.18894C37.2392 5.13441 36.9642 4.93726 37.0329 4.56392C37.7163 1.05709 40.9612 0 43.8665 0C45.3536 0 47.2962 0.38592 48.4695 1.48495C49.9566 2.83987 49.8147 4.64782 49.8147 6.61517V11.263C49.8147 12.6599 50.4078 13.2723 50.9665 14.0274C51.1642 14.2958 51.2072 14.6188 50.958 14.8202C50.3348 15.3277 49.2259 16.2716 48.6156 16.8001L48.607 16.7917Z" fill="#221F1F"/>
<path d="M8.25366 9.52215V8.87616C6.22865 8.87616 4.0894 9.33759 4.0894 11.8796C4.0894 13.1674 4.71581 14.0399 5.79135 14.0399C6.57929 14.0399 7.28449 13.524 7.72968 12.685C8.28123 11.6531 8.25366 10.6841 8.25366 9.52215ZM11.0784 16.7917C10.8933 16.9679 10.6253 16.9805 10.4165 16.863C9.48678 16.0408 9.32131 15.6591 8.80915 14.8747C7.27267 16.5442 6.18532 17.0434 4.19183 17.0434C1.83589 17.0434 0 15.4955 0 12.3956C0 9.97519 1.23312 8.32664 2.98629 7.52125C4.50701 6.80813 6.6305 6.68229 8.25366 6.48513V6.09921C8.25366 5.39029 8.30487 4.55134 7.91484 3.9389C7.57209 3.38938 6.9181 3.16287 6.3429 3.16287C5.27525 3.16287 4.32184 3.74594 4.0894 4.95404C4.04212 5.2225 3.85696 5.48678 3.60482 5.49936L0.886431 5.18894C0.657928 5.13441 0.405788 4.93726 0.468823 4.56392C1.09523 1.05709 4.0697 0 6.73293 0C8.09607 0 9.87681 0.38592 10.9523 1.48495C12.3155 2.83987 12.1855 4.64782 12.1855 6.61517V11.263C12.1855 12.6599 12.7291 13.2723 13.2413 14.0274C13.4225 14.2958 13.4619 14.6188 13.2334 14.8202C12.6622 15.3277 11.6457 16.2716 11.0863 16.8001L11.0784 16.7917Z" fill="#221F1F"/>
</svg>
