<svg width="24" height="25" viewBox="0 0 24 25" fill="none" xmlns="http://www.w3.org/2000/svg">
<path d="M24 12.5C24 10.7755 23.6878 9.15625 23.0633 7.64236C22.4389 6.11227 21.5833 4.78125 20.4967 3.64931C19.41 2.51968 18.1322 1.62847 16.6633 0.975694C15.21 0.325231 13.6556 0 12 0C10.3444 0 8.79 0.325231 7.33667 0.975694C5.86778 1.62847 4.59 2.51968 3.50333 3.64931C2.41889 4.78125 1.56333 6.11227 0.936667 7.64236C0.312222 9.15625 0 10.7755 0 12.5C0 14.0625 0.257778 15.5359 0.773333 16.9201C1.28889 18.3183 2 19.5671 2.90667 20.6667C3.81333 21.7662 4.88333 22.6736 6.11667 23.3889C7.35222 24.1204 8.68889 24.6088 10.1267 24.8542V16.1146H7.07667V12.5H10.1267V9.73958C10.1267 8.17708 10.54 6.97685 11.3667 6.13889C12.1956 5.30093 13.29 4.88194 14.65 4.88194C15.3056 4.88194 15.9178 4.92245 16.4867 5.00347C17.0578 5.08681 17.3433 5.12847 17.3433 5.12847V8.20486H15.82C15.0867 8.20486 14.5789 8.40741 14.2967 8.8125C14.0167 9.21991 13.8767 9.66782 13.8767 10.1563V12.5H17.2033L16.6633 16.1146H13.8767V24.8542C15.3122 24.6088 16.6478 24.1204 17.8833 23.3889C19.1167 22.6736 20.1867 21.7662 21.0933 20.6667C22 19.5671 22.7111 18.3183 23.2267 16.9201C23.7422 15.5359 24 14.0625 24 12.5Z" fill="white"/>
</svg>
