<svg width="24" height="25" viewBox="0 0 24 25" fill="none" xmlns="http://www.w3.org/2000/svg">
<path d="M12 2.24653C13.6089 2.24653 14.66 2.25 15.1533 2.25694C15.6444 2.2662 16.21 2.28704 16.85 2.31944C17.43 2.35185 17.8911 2.41319 18.2333 2.50347C18.5778 2.59144 18.8589 2.67708 19.0767 2.76042C19.3589 2.87384 19.6056 3.00347 19.8167 3.14931C20.0278 3.29514 20.2422 3.47454 20.46 3.6875C20.6644 3.89815 20.8367 4.11806 20.9767 4.34722C21.1167 4.57407 21.2411 4.83449 21.35 5.12847C21.43 5.33912 21.5122 5.62384 21.5967 5.98264C21.6833 6.33912 21.7344 6.82755 21.75 7.44792C21.7811 8.09838 21.8011 8.68403 21.81 9.20486C21.8167 9.72569 21.82 10.8241 21.82 12.5C21.82 14.1597 21.8167 15.25 21.81 15.7708C21.8011 16.2917 21.7811 16.8773 21.75 17.5278C21.7344 18.1481 21.6833 18.6366 21.5967 18.9931C21.5122 19.3519 21.43 19.6366 21.35 19.8472C21.2411 20.1412 21.1167 20.4016 20.9767 20.6285C20.8367 20.8576 20.6644 21.0775 20.46 21.2882C20.2422 21.5174 20.0278 21.7049 19.8167 21.8507C19.6056 21.9965 19.3589 22.1181 19.0767 22.2153C18.8589 22.3148 18.5778 22.4051 18.2333 22.4861C17.8911 22.5671 17.43 22.6238 16.85 22.6562C16.21 22.6887 15.64 22.7095 15.14 22.7188C14.64 22.7257 13.5933 22.7292 12 22.7292C10.3911 22.7292 9.34 22.7257 8.84667 22.7188C8.35556 22.7095 7.79 22.6887 7.15 22.6562C6.57 22.6238 6.10889 22.5671 5.76667 22.4861C5.42222 22.4051 5.14111 22.3148 4.92333 22.2153C4.64111 22.1181 4.39444 21.9965 4.18333 21.8507C3.97222 21.7049 3.75778 21.5174 3.54 21.2882C3.33556 21.0775 3.16333 20.8576 3.02333 20.6285C2.88333 20.4016 2.75889 20.1412 2.65 19.8472C2.57 19.6366 2.48778 19.3519 2.40333 18.9931C2.31667 18.6366 2.26556 18.1481 2.25 17.5278C2.21889 16.8773 2.19889 16.2917 2.19 15.7708C2.18333 15.25 2.18 14.1597 2.18 12.5C2.18 10.8241 2.18333 9.72569 2.19 9.20486C2.19889 8.68403 2.21889 8.09838 2.25 7.44792C2.26556 6.82755 2.31667 6.33912 2.40333 5.98264C2.48778 5.62384 2.57 5.33912 2.65 5.12847C2.75889 4.83449 2.88333 4.57407 3.02333 4.34722C3.16333 4.11806 3.33556 3.89815 3.54 3.6875C3.75778 3.47454 3.97222 3.29514 4.18333 3.14931C4.39444 3.00347 4.64111 2.87384 4.92333 2.76042C5.14111 2.67708 5.42222 2.59144 5.76667 2.50347C6.10889 2.41319 6.57 2.35185 7.15 2.31944C7.79 2.28704 8.35556 2.2662 8.84667 2.25694C9.34 2.25 10.3911 2.24653 12 2.24653ZM12 0C10.3756 0 9.30556 0.00462963 8.79 0.0138889C8.27444 0.0208333 7.69556 0.0405093 7.05333 0.0729167C6.41333 0.105324 5.86333 0.170139 5.40333 0.267361C4.94111 0.366898 4.52333 0.497685 4.15 0.659722C3.74333 0.821759 3.36778 1.01736 3.02333 1.24653C2.67889 1.47338 2.34333 1.7581 2.01667 2.10069C1.68778 2.44097 1.41444 2.79051 1.19667 3.14931C0.976667 3.5081 0.788889 3.89931 0.633333 4.32292C0.477778 4.71181 0.352222 5.14699 0.256667 5.62847C0.163333 6.10764 0.101111 6.68056 0.07 7.34722C0.0388889 8.0162 0.02 8.61921 0.0133333 9.15625C0.00444444 9.69329 0 10.8079 0 12.5C0 14.1921 0.00444444 15.3067 0.0133333 15.8438C0.02 16.3808 0.0388889 16.9838 0.07 17.6528C0.101111 18.3194 0.163333 18.8924 0.256667 19.3715C0.352222 19.853 0.477778 20.2882 0.633333 20.6771C0.788889 21.1007 0.976667 21.4919 1.19667 21.8507C1.41444 22.2095 1.68778 22.559 2.01667 22.8993C2.34333 23.2419 2.67889 23.5266 3.02333 23.7535C3.36778 23.9826 3.74333 24.1782 4.15 24.3403C4.52333 24.4861 4.94111 24.6123 5.40333 24.7188C5.86333 24.8252 6.41333 24.8947 7.05333 24.9271C7.69556 24.9595 8.27444 24.9792 8.79 24.9861C9.30556 24.9954 10.3756 25 12 25C13.6244 25 14.6944 24.9954 15.21 24.9861C15.7256 24.9792 16.3044 24.9595 16.9467 24.9271C17.5867 24.8947 18.1367 24.8252 18.5967 24.7188C19.0589 24.6123 19.4767 24.4861 19.85 24.3403C20.2411 24.1782 20.6089 23.9826 20.9533 23.7535C21.2978 23.5266 21.6411 23.2419 21.9833 22.8993C22.3122 22.559 22.5856 22.2095 22.8033 21.8507C23.0233 21.4919 23.2111 21.1007 23.3667 20.6771C23.5067 20.2882 23.6278 19.853 23.73 19.3715C23.8322 18.8924 23.8911 18.3194 23.9067 17.6528C23.9378 16.9838 23.9567 16.3808 23.9633 15.8438C23.9722 15.3067 23.9767 14.1921 23.9767 12.5C23.9767 10.8079 23.9722 9.69329 23.9633 9.15625C23.9567 8.61921 23.9378 8.0162 23.9067 7.34722C23.8911 6.68056 23.8322 6.10764 23.73 5.62847C23.6278 5.14699 23.5067 4.71181 23.3667 4.32292C23.2111 3.91551 23.0233 3.52893 22.8033 3.16319C22.5856 2.79514 22.3122 2.44097 21.9833 2.10069C21.6567 1.7581 21.3211 1.47338 20.9767 1.24653C20.6322 1.01736 20.2567 0.821759 19.85 0.659722C19.4767 0.513889 19.0589 0.387731 18.5967 0.28125C18.1367 0.174769 17.5867 0.105324 16.9467 0.0729167C16.3044 0.0405093 15.7256 0.0208333 15.21 0.0138889C14.6944 0.00462963 13.6244 0 12 0ZM12 6.07986C11.1556 6.07986 10.3589 6.25 9.61 6.59028C8.85889 6.91667 8.20222 7.37268 7.64 7.95833C7.07778 8.54398 6.64 9.22801 6.32667 10.0104C6 10.7905 5.83667 11.6204 5.83667 12.5C5.83667 13.3796 6 14.2095 6.32667 14.9896C6.64 15.772 7.07778 16.456 7.64 17.0417C8.20222 17.6273 8.85889 18.0833 9.61 18.4097C10.3589 18.75 11.1556 18.9201 12 18.9201C12.8444 18.9201 13.6411 18.75 14.39 18.4097C15.1411 18.0833 15.7978 17.6273 16.36 17.0417C16.9222 16.456 17.36 15.772 17.6733 14.9896C18 14.2095 18.1633 13.3796 18.1633 12.5C18.1633 11.6204 18 10.7905 17.6733 10.0104C17.36 9.22801 16.9222 8.54398 16.36 7.95833C15.7978 7.37268 15.1411 6.91667 14.39 6.59028C13.6411 6.25 12.8444 6.07986 12 6.07986ZM12 16.6736C10.8911 16.6736 9.94556 16.2674 9.16333 15.4549C8.38333 14.64 7.99333 13.6551 7.99333 12.5C7.99333 11.3449 8.38333 10.36 9.16333 9.54514C9.94556 8.73264 10.8911 8.32639 12 8.32639C13.1089 8.32639 14.0544 8.73264 14.8367 9.54514C15.6167 10.36 16.0067 11.3449 16.0067 12.5C16.0067 13.6551 15.6167 14.64 14.8367 15.4549C14.0544 16.2674 13.1089 16.6736 12 16.6736ZM19.85 5.83333C19.85 6.24074 19.71 6.59143 19.43 6.88542C19.1478 7.17708 18.8044 7.32292 18.4 7.32292C18.0089 7.32292 17.6722 7.17708 17.39 6.88542C17.11 6.59143 16.97 6.24074 16.97 5.83333C16.97 5.41204 17.11 5.0544 17.39 4.76042C17.6722 4.46875 18.0089 4.32292 18.4 4.32292C18.8044 4.32292 19.1478 4.46875 19.43 4.76042C19.71 5.0544 19.85 5.41204 19.85 5.83333Z" fill="white"/>
</svg>
