<svg width="24" height="25" viewBox="0 0 24 25" fill="none" xmlns="http://www.w3.org/2000/svg">
<path d="M22.22 0H1.78C1.28 0 0.858889 0.174769 0.516667 0.524306C0.172222 0.873843 0 1.30093 0 1.80556V23.1944C0 23.6991 0.172222 24.1262 0.516667 24.4757C0.858889 24.8252 1.28 25 1.78 25H22.22C22.72 25 23.1411 24.8252 23.4833 24.4757C23.8278 24.1262 24 23.6991 24 23.1944V1.80556C24 1.30093 23.8278 0.873843 23.4833 0.524306C23.1411 0.174769 22.72 0 22.22 0ZM7.12667 9.375V21.3125H3.56333V9.375H7.12667ZM5.34333 7.73958C4.76556 7.73958 4.27778 7.53241 3.88 7.11806C3.48 6.70139 3.28 6.19213 3.28 5.59028C3.28 5.00463 3.48 4.5 3.88 4.07639C4.27778 3.65278 4.76556 3.44097 5.34333 3.44097C5.90556 3.44097 6.39 3.65278 6.79667 4.07639C7.20333 4.5 7.40667 5.00463 7.40667 5.59028C7.40667 6.17593 7.20333 6.68055 6.79667 7.10417C6.39 7.52778 5.90556 7.73958 5.34333 7.73958ZM20.46 21.3125H16.9V15.5035C16.9 14.8206 16.8178 14.1204 16.6533 13.4028C16.4889 12.6875 15.9533 12.3299 15.0467 12.3299C14.1244 12.3299 13.5389 12.647 13.29 13.2812C13.0389 13.9155 12.9133 14.6238 12.9133 15.4062V21.3125H9.35V9.375H12.7733V11.0104H12.82C13.0556 10.5382 13.4578 10.0984 14.0267 9.69097C14.5978 9.28588 15.3133 9.08333 16.1733 9.08333C17.9844 9.08333 19.1522 9.62847 19.6767 10.7188C20.1989 11.809 20.46 13.1516 20.46 14.7465V21.3125Z" fill="white"/>
</svg>
