<svg width="104" height="37" viewBox="0 0 104 37" fill="none" xmlns="http://www.w3.org/2000/svg">
<path d="M0 0H18.7781C23.0758 0 26.3338 1.23472 28.5589 3.71106C30.784 6.1874 31.893 9.39491 31.893 13.3336C31.893 15.8858 31.3454 18.1552 30.2502 20.1418C29.155 22.1284 27.6023 23.6873 25.5851 24.8117C23.568 25.936 21.2181 26.5016 18.5425 26.5016H10.6264V36.2346H0V0ZM16.1163 18.4035C17.6968 18.4035 18.9168 17.9414 19.7625 17.024C20.6081 16.1065 21.0379 14.8787 21.0379 13.3405C21.0379 11.6919 20.6497 10.4089 19.8803 9.48458C19.1039 8.56717 17.9463 8.10501 16.4005 8.10501H10.6333V18.4035H16.1163Z" fill="#272524"/>
<path d="M34.333 0H53.2775C57.5752 0 60.8193 1.16574 63.0028 3.49033C65.1863 5.81491 66.2815 8.94655 66.2815 12.8921C66.2815 15.2926 65.6784 17.424 64.4723 19.2796C63.2662 21.1351 61.6234 22.5699 59.5508 23.5838C59.9667 23.9218 60.3202 24.315 60.6252 24.7634C60.9232 25.2118 61.2629 25.867 61.6442 26.7362L65.8309 36.2484H54.7471L50.8999 27.5225C50.5949 26.8465 50.2275 26.3706 49.7978 26.0878C49.3611 25.805 48.7511 25.667 47.9609 25.667H44.9663V36.2484H34.333V0ZM50.5672 17.562C52.113 17.562 53.3122 17.1619 54.1578 16.3549C55.0035 15.5478 55.4333 14.3959 55.4333 12.8921C55.4333 9.70532 53.9222 8.10501 50.9069 8.10501H44.9663V17.562H50.5672Z" fill="#272524"/>
<path d="M64.7982 0H75.8821L84.3666 23.977L92.8511 0H103.99L90.0229 36.2415H78.7657L64.7982 0Z" fill="#272524"/>
<path d="M100.24 32.8477H100.684C100.913 32.8477 101.093 32.7994 101.225 32.7029C101.356 32.6063 101.419 32.4614 101.419 32.2683C101.419 32.0959 101.37 31.9648 101.266 31.8613C101.162 31.7579 100.982 31.7096 100.719 31.7096H100.24V32.8477ZM99.5472 34.5791V31.1302H100.843C101.211 31.1302 101.523 31.206 101.779 31.3647C102.043 31.5233 102.174 31.813 102.174 32.2338C102.174 32.4407 102.119 32.627 102.001 32.7925C101.89 32.965 101.731 33.0892 101.544 33.165L102.327 34.5722H101.544L100.947 33.3858H100.247V34.5722H99.5472V34.5791ZM100.774 35.6138C101.252 35.6138 101.682 35.5034 102.07 35.2758C102.459 35.0481 102.764 34.7308 102.985 34.317C103.207 33.9031 103.318 33.434 103.318 32.9029C103.318 32.3718 103.207 31.8958 102.985 31.4888C102.764 31.075 102.459 30.7508 102.07 30.5231C101.682 30.2886 101.252 30.1782 100.774 30.1782C100.296 30.1782 99.866 30.2955 99.4848 30.5231C99.1036 30.7577 98.8055 31.075 98.5837 31.4888C98.3619 31.9027 98.2509 32.3718 98.2509 32.9029C98.2509 33.434 98.3619 33.91 98.5837 34.317C98.8055 34.7308 99.1036 35.0481 99.4848 35.2758C99.866 35.5034 100.296 35.6138 100.774 35.6138ZM100.774 36.2415C100.192 36.2415 99.6581 36.1035 99.1729 35.8138C98.6807 35.531 98.2925 35.1378 98.0014 34.6412C97.7103 34.1445 97.5647 33.5582 97.5647 32.896C97.5647 32.2338 97.7103 31.6613 98.0014 31.1577C98.2925 30.6542 98.6807 30.261 99.1729 29.9782C99.665 29.6954 100.199 29.5505 100.774 29.5505C101.349 29.5505 101.904 29.6954 102.396 29.9782C102.888 30.261 103.276 30.6542 103.568 31.1577C103.859 31.6613 104.004 32.2407 104.004 32.896C104.004 33.5513 103.859 34.1445 103.568 34.6412C103.276 35.1378 102.888 35.531 102.396 35.8138C101.904 36.0966 101.37 36.2415 100.774 36.2415Z" fill="#272524"/>
</svg>
