<svg width="24" height="25" viewBox="0 0 24 25" fill="none" xmlns="http://www.w3.org/2000/svg">
<path d="M23.7667 7.49664C23.7667 7.49664 23.6956 7.17835 23.5533 6.54178C23.4133 5.90752 23.1633 5.40289 22.8033 5.02789C22.3522 4.52326 21.8956 4.22696 21.4333 4.139C20.9733 4.04872 20.6256 3.98738 20.39 3.95497C19.5633 3.89016 18.6578 3.84154 17.6733 3.80914C16.6889 3.77673 15.7778 3.75242 14.94 3.73622C14.1044 3.72002 13.4056 3.71191 12.8433 3.71191C12.2811 3.71191 12 3.71191 12 3.71191C12 3.71191 11.7189 3.71191 11.1567 3.71191C10.5944 3.71191 9.89556 3.72002 9.06 3.73622C8.22222 3.75242 7.31111 3.77673 6.32667 3.80914C5.34222 3.84154 4.43667 3.89016 3.61 3.95497C3.37444 3.98738 3.02667 4.04872 2.56667 4.139C2.10667 4.22696 1.65 4.52326 1.19667 5.02789C0.836667 5.40289 0.586667 5.90752 0.446667 6.54178C0.304444 7.17835 0.233333 7.49664 0.233333 7.49664C0.233333 7.49664 0.194444 7.91909 0.116667 8.764C0.0388889 9.61122 0 10.5395 0 11.5487V13.4515C0 14.4608 0.0388889 15.3844 0.116667 16.2223C0.194444 17.0603 0.233333 17.4793 0.233333 17.4793C0.233333 17.4793 0.304444 17.801 0.446667 18.4446C0.586667 19.0881 0.836667 19.5973 1.19667 19.9723C1.65 20.477 2.13778 20.7698 2.66 20.8508C3.18444 20.9318 3.57889 20.9966 3.84333 21.0452C4.32778 21.0939 5.02333 21.1344 5.93 21.1668C6.83667 21.1992 7.73889 21.2235 8.63667 21.2397C9.53444 21.2559 10.32 21.2721 10.9933 21.2883C11.6644 21.2883 12 21.2883 12 21.2883C12 21.2883 12.2811 21.2883 12.8433 21.2883C13.4056 21.2883 14.1044 21.2767 14.94 21.2536C15.7778 21.2281 16.6889 21.1992 17.6733 21.1668C18.6578 21.1344 19.5633 21.0858 20.39 21.0209C20.6256 21.0047 20.9733 20.9515 21.4333 20.8612C21.8956 20.7733 22.3522 20.477 22.8033 19.9723C23.1633 19.5973 23.4133 19.0881 23.5533 18.4446C23.6956 17.801 23.7667 17.4793 23.7667 17.4793C23.7667 17.4793 23.8056 17.0603 23.8833 16.2223C23.9611 15.3844 24 14.4608 24 13.4515V11.5487C24 10.5395 23.9611 9.61122 23.8833 8.764C23.8056 7.91909 23.7667 7.49664 23.7667 7.49664ZM9.51667 15.7466V8.71539L16.0067 12.2327L9.51667 15.7466Z" fill="white"/>
</svg>
