<svg width="35" height="33" viewBox="0 0 35 33" fill="none" xmlns="http://www.w3.org/2000/svg">
<path d="M24.835 0.151855C24.9772 0.140269 25.0712 0.238974 25.1016 0.343262L25.1113 0.38916L25.3115 2.22998C25.3193 2.30201 25.2972 2.3746 25.251 2.43018L25.25 2.43115C25.2151 2.47221 25.1687 2.50176 25.1172 2.51611L25.0645 2.5249H25.0635L25.0615 2.52588C25.06 2.526 25.0574 2.52566 25.0547 2.52588C25.0493 2.52631 25.0416 2.52702 25.0322 2.52783C25.013 2.52949 24.9854 2.53215 24.9502 2.53564C24.8794 2.54266 24.7771 2.55343 24.6465 2.56982C24.3845 2.60271 24.0081 2.65701 23.5439 2.74365C22.6156 2.91697 21.3342 3.21922 19.9014 3.73584C17.0448 4.76585 13.5962 6.64491 11.1357 10.0444V11.5151H11.7002C11.8148 11.5151 11.9141 11.5879 11.9512 11.6929L11.9639 11.7388L12.4561 14.7974C14.2693 13.636 22.9785 8.72719 34.2852 13.3921C34.3849 13.4334 34.4502 13.5313 34.4502 13.6392V17.4038C34.4502 17.4849 34.4131 17.5629 34.3486 17.6138L34.3477 17.6128C34.283 17.6639 34.1997 17.6821 34.123 17.6646L34.1211 17.6636C34.1205 17.6634 34.119 17.663 34.1172 17.6626C34.1144 17.662 34.1104 17.6617 34.1055 17.6606C34.0949 17.6584 34.0791 17.6547 34.0596 17.6509C34.0207 17.6432 33.9647 17.6322 33.8926 17.6196C33.7759 17.5993 33.6166 17.5747 33.4199 17.5483L32.9844 21.8657C32.9706 22.0021 32.8557 22.1059 32.7188 22.106H28.9531C28.8256 22.1058 28.7159 22.0151 28.6914 21.8901L27.8633 17.6265C23.9904 18.1818 18.8626 19.9417 14.0742 24.8335L15.3086 32.4829C15.3209 32.5597 15.2995 32.6381 15.249 32.6978V32.6987C15.1984 32.7581 15.1238 32.7923 15.0459 32.7925H0.416992C0.338915 32.7925 0.263592 32.7583 0.212891 32.6987C0.162103 32.639 0.140979 32.5599 0.15332 32.4829L3.49805 11.7388C3.51907 11.6096 3.63101 11.5151 3.76172 11.5151H4.32617V8.17041C4.32622 6.29306 5.85316 4.76634 7.73047 4.76611C8.76129 4.76611 9.68351 5.22869 10.3076 5.95361C11.2768 4.81986 15.5529 0.516586 24.835 0.150879V0.151855ZM0.730469 32.2583H14.7314L11.4736 12.0483H3.98828L0.730469 32.2583ZM33.916 13.8179C22.4066 9.15578 13.697 14.5979 12.5488 15.3726L13.9707 24.1851C18.8422 19.3403 24.0359 17.6067 27.9482 17.0737C27.9647 17.0624 27.9892 17.0488 28.0215 17.0425L28.0234 17.0415C28.0636 17.0343 28.0985 17.0411 28.1211 17.0474C28.1227 17.0478 28.1244 17.0479 28.126 17.0483C30.3407 16.764 32.1268 16.8613 33.1846 16.981C33.1938 16.9804 33.204 16.9776 33.2148 16.979L33.2139 16.98C33.2225 16.9811 33.2299 16.9847 33.2373 16.9868C33.52 17.0198 33.7486 17.0555 33.916 17.0835V13.8179ZM32.8896 17.4868C31.8803 17.3871 30.3103 17.3242 28.3926 17.5532L29.1738 21.5718H32.4775L32.8896 17.4868ZM7.73047 5.29932C6.14779 5.29954 4.8604 6.58769 4.86035 8.17041V11.5151H10.6016V8.17041C10.6015 6.58756 9.31336 5.29932 7.73047 5.29932ZM24.6074 0.696777C15.3681 1.13601 11.3239 5.55144 10.6318 6.39697C10.9492 6.91395 11.1357 7.52019 11.1357 8.17041V9.16748C15.7729 3.32005 23.2366 2.19169 24.751 2.02002L24.6074 0.696777Z" fill="black" stroke="black" stroke-width="0.3"/>
</svg>
