<svg width="37" height="32" viewBox="0 0 37 32" fill="none" xmlns="http://www.w3.org/2000/svg">
<path fill-rule="evenodd" clip-rule="evenodd" d="M17.3365 6.54104C17.4622 6.54908 17.587 6.55504 17.711 6.55892C17.9704 6.56807 18.2253 6.5689 18.4716 6.56142C18.364 6.35157 18.2901 6.1259 18.2526 5.89276C18.1552 5.21275 18.2199 4.51916 18.441 3.86931C18.4451 3.85346 18.4502 3.8379 18.4563 3.82274C18.6598 3.1666 19.0154 2.56876 19.4936 2.07874C19.6027 1.97294 19.7211 1.87745 19.8475 1.79348C19.5588 1.66873 19.2499 1.55063 18.9269 1.44168C18.8601 1.41923 18.7929 1.39719 18.7252 1.37557C18.4671 1.64053 18.2387 1.93339 18.0443 2.24881C17.4849 3.14344 17.1826 4.17699 17.1711 5.23449C17.1614 5.67558 17.217 6.11565 17.3361 6.54021L17.3365 6.54104ZM19.393 6.51692C19.1719 6.43625 19.0197 6.15764 18.9517 5.76842C18.8729 5.19562 18.9314 4.61212 19.1224 4.06684C19.2884 3.51454 19.583 3.01026 19.9816 2.59603C20.2703 2.31867 20.5623 2.18519 20.7908 2.26046C21.0193 2.33572 21.174 2.61724 21.2445 3.01187C21.3231 3.58467 21.2645 4.16812 21.0737 4.71346C20.9079 5.26594 20.6133 5.77039 20.2146 6.18467C20.1206 6.30413 19.9983 6.39783 19.859 6.45713C19.7197 6.51642 19.5678 6.53942 19.4173 6.52399L19.3942 6.51609L19.393 6.51692ZM9.78198 3.52667L7.48255 6.91113C7.43296 6.98959 7.41577 7.08449 7.43465 7.17555C7.45354 7.26662 7.50699 7.34663 7.5836 7.39849L7.59721 7.40805C7.68897 7.46477 7.79897 7.4834 7.90407 7.46003C8.00856 7.43904 8.10094 7.37809 8.16186 7.28995L9.94531 4.6648C9.9251 4.59453 9.90695 4.523 9.89087 4.45106C9.82527 4.14716 9.78881 3.83761 9.78198 3.52667ZM7.15753 21.2482L4.90141 19.5042C4.89192 19.4971 4.88243 19.4901 4.87377 19.4826L2.32893 17.5157L0.793773 24.3961L4.45183 25.6045L7.15753 21.2482ZM5.17775 25.782L7.79725 21.5622L8.56689 21.7173L5.94863 25.9371L5.17775 25.782ZM6.71827 26.0448L9.32457 21.8483L10.1907 21.946L7.5869 26.1426L6.72074 26.0448H6.71827ZM9.59431 21.158L8.87004 20.5833L8.65144 21.0029L9.20289 21.1139L9.59431 21.158ZM5.3382 17.7793L4.95874 18.6484L3.39925 17.4425L5.25735 17.7145L5.33985 17.7785L5.3382 17.7793ZM6.97193 15.8133L11.3204 5.84785C11.354 5.77155 11.36 5.68582 11.3374 5.60553C11.3148 5.52524 11.265 5.45546 11.1967 5.40831C10.8731 5.11782 10.6561 4.72576 10.5809 4.29554C10.4591 3.6441 10.4547 2.97588 10.5677 2.32283C10.5705 2.30994 10.5726 2.29689 10.5739 2.28374C10.6857 1.63089 11.3336 1.18387 12.3161 0.93811C13.8116 0.644147 15.349 0.639914 16.8461 0.925635C17.2173 0.984683 17.5918 1.06286 17.9597 1.15684C17.77 1.38204 17.5968 1.62095 17.4417 1.87165C16.811 2.87773 16.4717 4.04146 16.4621 5.23158C16.455 5.64976 16.4965 6.06733 16.5858 6.47575C16.3858 6.45288 16.1857 6.42544 15.9886 6.39259L15.8764 6.37304L15.763 6.35308C15.6853 6.33948 15.6054 6.35227 15.5357 6.38945C15.4661 6.42664 15.4106 6.4861 15.3782 6.55851L9.84673 17.1726C9.29139 17.1069 8.74995 16.9525 8.2427 16.7152C7.77081 16.4903 7.34092 16.1855 6.97193 15.8133ZM8.49801 19.7587L8.44728 19.8556C8.44162 19.8651 8.43653 19.875 8.43202 19.8851L7.92552 20.8569L7.77621 20.8253L5.53824 19.0954L5.83768 18.4135C6.19698 18.7711 6.60962 19.0699 7.0606 19.2988C7.51478 19.5233 7.99991 19.6775 8.49966 19.7562L8.49801 19.7587ZM6.14372 17.7095L6.66754 16.509C7.04837 16.8548 7.4775 17.1425 7.94119 17.3627C8.43566 17.595 8.95985 17.7567 9.49862 17.843L8.84859 19.0859C8.33668 19.0301 7.83822 18.8853 7.37531 18.658C6.91078 18.4203 6.49337 18.0988 6.14372 17.7095ZM3.76757 30.6132L0.990513 29.9965C0.976068 29.9945 0.961401 29.9979 0.949268 30.0061C0.935954 30.0125 0.925403 30.0236 0.919571 30.0373L0.713344 30.666L3.4904 31.2827C3.50484 31.2847 3.51951 31.2813 3.53164 31.2731C3.54484 31.2667 3.55537 31.2558 3.56134 31.2423L3.76757 30.6132ZM3.93791 29.9171C3.95224 29.9178 3.96645 29.9142 3.97877 29.9068C3.99109 29.8994 4.00098 29.8885 4.00721 29.8755L4.21343 29.2468L1.43473 28.6309C1.42025 28.6299 1.40581 28.6334 1.3933 28.6408C1.3808 28.6482 1.3708 28.6593 1.36461 28.6725L1.15838 29.3012L3.93544 29.9183L3.93791 29.9171ZM1.60383 27.936L4.3813 28.5527C4.39569 28.5548 4.41034 28.5516 4.42255 28.5436C4.43571 28.5369 4.4462 28.5259 4.45224 28.5124L4.65847 27.8837L1.87812 27.2649C1.86367 27.2629 1.849 27.2663 1.83687 27.2745C1.82362 27.281 1.8131 27.292 1.80717 27.3056L1.60095 27.9344L1.60383 27.936ZM5.73374 26.6266L5.3382 27.6549C5.37588 27.7731 5.38172 27.8993 5.35511 28.0205C5.35235 28.033 5.34891 28.0453 5.34479 28.0575C5.34149 28.0699 5.3382 28.0812 5.33531 28.0907L5.12619 28.7336C5.08339 28.8618 5.00802 28.9765 4.90759 29.0663C4.93306 29.1706 4.93419 29.2795 4.91089 29.3844C4.908 29.3969 4.90471 29.4093 4.90099 29.4214C4.89728 29.4335 4.89439 29.4447 4.89151 29.4543L4.68281 30.0984C4.64043 30.2274 4.56502 30.3429 4.4642 30.4331C4.48945 30.5375 4.49058 30.6463 4.4675 30.7512C4.4647 30.7637 4.46126 30.7761 4.45719 30.7882C4.45461 30.7994 4.45145 30.8103 4.44771 30.8211L4.23859 31.4644C4.17759 31.6465 4.05261 31.7999 3.88721 31.8956C3.72182 31.9912 3.52743 32.0226 3.34068 31.9838L0.546713 31.3625L0.52444 31.3567C0.509179 31.3525 0.493506 31.348 0.477833 31.3426C0.314164 31.2893 0.176136 31.1763 0.0908267 31.0258C0.00551715 30.8752 -0.0209176 30.698 0.0167085 30.5288C0.0195145 30.5163 0.0229562 30.5039 0.0270199 30.4918C0.0303195 30.4797 0.0332068 30.4685 0.0365064 30.4589L0.245621 29.816C0.287728 29.6869 0.363178 29.5713 0.464222 29.4813C0.438766 29.3769 0.437636 29.268 0.460922 29.1632C0.460922 29.1553 0.464634 29.1478 0.466696 29.1399C0.470408 29.1249 0.474945 29.1095 0.480307 29.0929L0.689422 28.45C0.731903 28.321 0.807293 28.2056 0.908023 28.1153C0.88276 28.0109 0.881631 27.9021 0.904723 27.7972C0.904723 27.7897 0.908435 27.7818 0.910497 27.7743C0.914622 27.7593 0.919159 27.7435 0.924521 27.7273L1.13322 27.0844C1.17586 26.9562 1.25109 26.8415 1.35141 26.7518L1.76758 25.4722L0.269543 24.9753C0.182776 24.9468 0.110229 24.8858 0.0669824 24.8048C0.0237358 24.7237 0.0131163 24.6291 0.0373313 24.5404L1.75438 16.8304C1.77018 16.7389 1.82067 16.6571 1.89518 16.6024C1.96968 16.5477 2.06236 16.5243 2.15363 16.5372L5.45327 17.0209C5.5152 17.0295 5.57372 17.0546 5.62279 17.0936L5.63434 17.1028L10.5677 5.79545C10.4611 5.68508 10.3657 5.56416 10.2831 5.43451L8.74796 7.69456C8.58204 7.93481 8.3311 8.10181 8.04677 8.16121C7.76245 8.22061 7.46635 8.1679 7.2194 8.01392C7.2029 8.00394 7.19135 7.99604 7.18352 7.99063C6.95523 7.83443 6.79619 7.59479 6.74007 7.32245C6.68395 7.0501 6.73515 6.76643 6.88284 6.53148C6.89274 6.51567 6.90057 6.50361 6.90593 6.49571L9.88798 2.10494C10.0769 1.16848 10.9109 0.553465 12.1482 0.243254C13.7347 -0.0730546 15.3664 -0.0809583 16.9558 0.219967C17.5495 0.315571 18.1364 0.450595 18.7124 0.624157C18.7246 0.627128 18.7366 0.630737 18.7483 0.634968C18.8858 0.676274 19.0201 0.719243 19.1513 0.763876C19.8066 0.979354 20.4402 1.25684 21.0436 1.59263C21.2945 1.70858 21.5101 1.88991 21.6682 2.1179C21.8263 2.34589 21.9213 2.61229 21.9432 2.88961C22.0414 3.57755 21.9742 4.27922 21.7473 4.93551C21.5445 5.60072 21.1861 6.20701 20.7021 6.70322C20.5263 6.90587 20.3022 7.0601 20.051 7.15139C19.7997 7.24269 19.5296 7.26805 19.266 7.22508C18.7421 7.27817 18.2152 7.29429 17.6891 7.27332C17.4796 7.26584 17.2668 7.25378 17.0531 7.23714H17.0432C16.6613 7.20679 16.2757 7.16105 15.8983 7.10158L9.3753 19.6144C9.3698 19.6269 9.36346 19.639 9.35633 19.6506L9.20619 19.9388L11.0115 21.3725C11.0818 21.4282 11.1286 21.5085 11.1428 21.5974C11.1569 21.6864 11.1373 21.7774 11.0878 21.8524L8.07194 26.7106C8.03674 26.7684 7.98593 26.815 7.92546 26.8448C7.86498 26.8746 7.79734 26.8865 7.73043 26.879L6.09959 26.6948C6.08282 26.6939 6.06614 26.6918 6.04968 26.6886L5.73374 26.6249V26.6266ZM4.7653 27.1717L5.0305 26.4827L4.53803 26.3833C4.517 26.3793 4.49642 26.3731 4.47658 26.365L2.44359 25.6935L2.15157 26.5912L4.76488 27.1734L4.7653 27.1717ZM20.7496 9.91677C20.7927 10.0013 20.8674 10.0651 20.9572 10.0941C21.047 10.1231 21.1446 10.115 21.2284 10.0715C21.3123 10.028 21.3755 9.95265 21.4043 9.86211C21.4331 9.77157 21.425 9.67321 21.3818 9.58868L21.056 8.95121C21.0129 8.86667 20.9382 8.80289 20.8484 8.77388C20.7586 8.74486 20.661 8.75301 20.5771 8.79652C20.4933 8.84002 20.43 8.91533 20.4013 9.00587C20.3725 9.09641 20.3806 9.19477 20.4237 9.2793L20.7496 9.91677ZM22.0517 12.4671C22.0949 12.5516 22.1696 12.6154 22.2595 12.6443C22.3493 12.6733 22.4469 12.6651 22.5307 12.6216C22.6146 12.578 22.6778 12.5026 22.7066 12.4121C22.7353 12.3215 22.7272 12.2231 22.684 12.1386L22.3585 11.5011C22.3371 11.4592 22.3078 11.422 22.2721 11.3916C22.2365 11.3612 22.1952 11.3382 22.1507 11.3238C22.1063 11.3095 22.0594 11.3041 22.0129 11.308C21.9663 11.3119 21.921 11.325 21.8795 11.3466C21.838 11.3682 21.8011 11.3978 21.7709 11.4337C21.7407 11.4697 21.7179 11.5113 21.7036 11.5561C21.6894 11.601 21.6841 11.6482 21.688 11.6951C21.6918 11.742 21.7049 11.7877 21.7262 11.8296L22.0517 12.4671ZM23.3538 15.0165C23.3752 15.0584 23.4045 15.0956 23.4401 15.126C23.4758 15.1565 23.517 15.1795 23.5614 15.1939C23.6059 15.2082 23.6527 15.2136 23.6993 15.2097C23.7458 15.2059 23.7911 15.1928 23.8327 15.1712C23.8742 15.1497 23.9111 15.1201 23.9412 15.0842C23.9714 15.0483 23.9943 15.0067 24.0085 14.9619C24.0228 14.917 24.0281 14.8698 24.0243 14.8229C24.0204 14.776 24.0075 14.7303 23.9861 14.6885L23.6607 14.051C23.6175 13.9664 23.5428 13.9027 23.453 13.8736C23.3632 13.8446 23.2656 13.8528 23.1818 13.8963C23.098 13.9398 23.0347 14.0151 23.0059 14.1056C22.9771 14.1962 22.9852 14.2945 23.0284 14.3791L23.3538 15.0165ZM24.6559 17.5664C24.6773 17.6083 24.7067 17.6455 24.7423 17.6759C24.778 17.7063 24.8192 17.7294 24.8637 17.7437C24.9082 17.758 24.955 17.7634 25.0016 17.7595C25.0481 17.7556 25.0935 17.7425 25.135 17.7209C25.1765 17.6993 25.2134 17.6697 25.2436 17.6338C25.2737 17.5978 25.2966 17.5563 25.3108 17.5114C25.325 17.4666 25.3304 17.4193 25.3265 17.3724C25.3226 17.3255 25.3096 17.2798 25.2882 17.2379L24.9628 16.6004C24.9196 16.5159 24.8448 16.4521 24.755 16.4232C24.6651 16.3942 24.5676 16.4024 24.4837 16.446C24.3999 16.4895 24.3366 16.5649 24.3079 16.6555C24.2791 16.746 24.2873 16.8444 24.3305 16.929L24.6559 17.5664ZM25.9584 20.1159C26.0016 20.2004 26.0763 20.2642 26.1661 20.2932C26.2559 20.3222 26.3535 20.3141 26.4373 20.2706C26.5211 20.2271 26.5844 20.1518 26.6132 20.0612C26.642 19.9707 26.6339 19.8723 26.5907 19.7878L26.2649 19.1503C26.2217 19.0658 26.147 19.002 26.0572 18.973C25.9674 18.944 25.8699 18.9521 25.786 18.9956C25.7022 19.0392 25.6389 19.1145 25.6101 19.205C25.5814 19.2955 25.5894 19.3939 25.6326 19.4784L25.9584 20.1159ZM23.0073 8.13992C23.0412 8.17281 23.0811 8.19861 23.1249 8.21584C23.1687 8.23306 23.2154 8.24137 23.2624 8.24027C23.3094 8.23917 23.3557 8.22869 23.3986 8.20944C23.4416 8.19018 23.4803 8.16254 23.5126 8.1281C23.5448 8.09366 23.57 8.05312 23.5867 8.0088C23.6033 7.96449 23.6111 7.91729 23.6095 7.86994C23.6079 7.82259 23.597 7.77601 23.5775 7.73292C23.558 7.68983 23.5302 7.65107 23.4957 7.61888L22.9789 7.12653C22.9449 7.09418 22.905 7.06888 22.8614 7.05208C22.8177 7.03528 22.7713 7.02731 22.7246 7.02862C22.6303 7.03127 22.5409 7.07158 22.4761 7.14067C22.4113 7.20977 22.3763 7.30199 22.379 7.39705C22.3816 7.49211 22.4216 7.58223 22.4901 7.64757L23.0073 8.13992ZM25.0746 10.1097C25.1084 10.1426 25.1483 10.1684 25.1921 10.1856C25.2359 10.2029 25.2826 10.2112 25.3296 10.2101C25.3766 10.209 25.4229 10.1985 25.4658 10.1792C25.5088 10.16 25.5475 10.1323 25.5798 10.0979C25.6121 10.0635 25.6372 10.0229 25.6539 9.9786C25.6705 9.93429 25.6783 9.88709 25.6767 9.83974C25.6751 9.79238 25.6643 9.74581 25.6447 9.70272C25.6252 9.65963 25.5974 9.62087 25.5629 9.58868L25.0461 9.09633C25.0123 9.06344 24.9723 9.03764 24.9285 9.02041C24.8847 9.00319 24.838 8.99488 24.791 8.99598C24.744 8.99708 24.6977 9.00756 24.6548 9.02681C24.6119 9.04607 24.5731 9.07371 24.5409 9.10815C24.5086 9.14259 24.4834 9.18313 24.4668 9.22745C24.4501 9.27176 24.4424 9.31896 24.4439 9.36631C24.4455 9.41366 24.4564 9.46024 24.4759 9.50333C24.4954 9.54642 24.5233 9.58518 24.5577 9.61737L25.0746 10.1097ZM27.1422 12.0795C27.176 12.1124 27.216 12.1382 27.2597 12.1554C27.3035 12.1727 27.3503 12.181 27.3972 12.1799C27.4442 12.1788 27.4905 12.1683 27.5335 12.149C27.5764 12.1298 27.6151 12.1021 27.6474 12.0677C27.6797 12.0333 27.7049 11.9927 27.7215 11.9484C27.7381 11.9041 27.7459 11.8569 27.7443 11.8095C27.7428 11.7622 27.7319 11.7156 27.7124 11.6725C27.6928 11.6294 27.665 11.5907 27.6305 11.5585L27.1137 11.0661C27.0805 11.0309 27.0404 11.0029 26.9961 10.9838C26.9518 10.9647 26.904 10.9549 26.8558 10.9549C26.8076 10.955 26.7599 10.965 26.7156 10.9842C26.6713 11.0035 26.6314 11.0316 26.5982 11.0669C26.565 11.1022 26.5393 11.1439 26.5227 11.1895C26.506 11.2352 26.4987 11.2837 26.5013 11.3323C26.5038 11.3808 26.5161 11.4284 26.5375 11.472C26.5588 11.5156 26.5887 11.5543 26.6254 11.5859L27.1422 12.0783V12.0795ZM29.2094 14.0472C29.2432 14.0801 29.2832 14.1059 29.327 14.1232C29.3708 14.1404 29.4175 14.1487 29.4645 14.1476C29.5114 14.1465 29.5577 14.136 29.6007 14.1168C29.6436 14.0975 29.6824 14.0699 29.7146 14.0354C29.7469 14.001 29.7721 13.9604 29.7887 13.9161C29.8054 13.8718 29.8131 13.8246 29.8116 13.7773C29.81 13.7299 29.7991 13.6833 29.7796 13.6402C29.7601 13.5971 29.7322 13.5584 29.6978 13.5262L29.1826 13.0343C29.1488 13.0014 29.1088 12.9756 29.065 12.9583C29.0212 12.9411 28.9745 12.9328 28.9275 12.9339C28.8806 12.935 28.8343 12.9455 28.7913 12.9647C28.7484 12.984 28.7096 13.0116 28.6774 13.0461C28.6451 13.0805 28.6199 13.1211 28.6033 13.1654C28.5866 13.2097 28.5789 13.2569 28.5804 13.3042C28.582 13.3516 28.5929 13.3982 28.6124 13.4413C28.6319 13.4844 28.6598 13.5231 28.6943 13.5553L29.2094 14.0472ZM31.277 16.0166C31.3109 16.0495 31.3508 16.0753 31.3946 16.0925C31.4384 16.1098 31.4851 16.1181 31.5321 16.117C31.5791 16.1159 31.6254 16.1054 31.6683 16.0861C31.7113 16.0669 31.75 16.0392 31.7823 16.0048C31.8145 15.9704 31.8397 15.9298 31.8564 15.8855C31.873 15.8412 31.8808 15.794 31.8792 15.7466C31.8776 15.6993 31.8668 15.6527 31.8472 15.6096C31.8277 15.5665 31.7999 15.5278 31.7654 15.4956L31.2486 15.0037C31.2148 14.9708 31.1748 14.945 31.131 14.9277C31.0872 14.9105 31.0405 14.9022 30.9935 14.9033C30.9465 14.9044 30.9002 14.9149 30.8573 14.9341C30.8144 14.9534 30.7756 14.981 30.7433 15.0155C30.7111 15.0499 30.6859 15.0905 30.6693 15.1348C30.6526 15.1791 30.6449 15.2263 30.6464 15.2736C30.648 15.321 30.6589 15.3676 30.6784 15.4106C30.6979 15.4537 30.7257 15.4925 30.7602 15.5247L31.277 16.0166ZM24.3321 5.90232C24.4196 5.93233 24.5152 5.92688 24.5987 5.88713C24.6823 5.84737 24.7472 5.77642 24.7798 5.68928C24.8125 5.60214 24.8102 5.50562 24.7735 5.42014C24.7368 5.33465 24.6686 5.26689 24.5833 5.23117L23.9176 4.97834C23.8738 4.96087 23.8269 4.95237 23.7797 4.95334C23.7326 4.95431 23.6861 4.96472 23.643 4.98398C23.5998 5.00324 23.561 5.03096 23.5286 5.06552C23.4962 5.10008 23.4709 5.14079 23.4543 5.18528C23.4376 5.22977 23.43 5.27716 23.4317 5.32468C23.4334 5.3722 23.4444 5.4189 23.4642 5.46206C23.484 5.50522 23.5121 5.54399 23.5469 5.5761C23.5817 5.6082 23.6225 5.63301 23.6668 5.64908L24.3321 5.90232ZM26.9937 6.91404C27.0819 6.94762 27.1798 6.9445 27.2657 6.90535C27.3516 6.8662 27.4186 6.79424 27.4519 6.70529C27.4852 6.61635 27.4821 6.51771 27.4433 6.43107C27.4045 6.34443 27.3331 6.27689 27.2449 6.2433L26.5792 5.99006C26.5355 5.97346 26.4889 5.9657 26.4423 5.96723C26.3956 5.96876 26.3496 5.97954 26.3071 5.99896C26.2645 6.01838 26.2262 6.04607 26.1943 6.08043C26.1623 6.11479 26.1374 6.15516 26.1209 6.19923C26.1045 6.24329 26.0968 6.2902 26.0983 6.33727C26.0998 6.38434 26.1105 6.43064 26.1298 6.47354C26.149 6.51644 26.1765 6.55509 26.2106 6.5873C26.2447 6.6195 26.2847 6.64462 26.3284 6.66122L26.9937 6.91404ZM29.6553 7.92576C29.6989 7.94239 29.7455 7.95018 29.7921 7.94869C29.8388 7.9472 29.8847 7.93645 29.9273 7.91707C29.9698 7.89769 30.0082 7.87004 30.0401 7.83572C30.0721 7.80139 30.097 7.76106 30.1135 7.71702C30.13 7.67297 30.1377 7.62609 30.1362 7.57904C30.1348 7.53198 30.1241 7.48569 30.1049 7.44279C30.0857 7.39989 30.0582 7.36123 30.0242 7.32901C29.9901 7.29679 29.9501 7.27165 29.9065 7.25502L29.2408 7.00178C29.197 6.98518 29.1505 6.97742 29.1038 6.97895C29.0571 6.98048 29.0112 6.99126 28.9687 7.01068C28.9261 7.03011 28.8878 7.05779 28.8558 7.09215C28.8239 7.12651 28.799 7.16688 28.7825 7.21095C28.766 7.25502 28.7584 7.30192 28.7599 7.34899C28.7614 7.39606 28.7721 7.44236 28.7913 7.48526C28.8106 7.52816 28.8381 7.56682 28.8721 7.59902C28.9062 7.63122 28.9463 7.65634 28.99 7.67294L29.6553 7.92576ZM32.3172 8.93748C32.4055 8.97107 32.5033 8.96794 32.5892 8.92879C32.6752 8.88964 32.7422 8.81768 32.7755 8.72874C32.8088 8.63979 32.8057 8.54115 32.7669 8.45451C32.728 8.36787 32.6567 8.30033 32.5684 8.26675L31.9027 8.01392C31.8589 7.99645 31.812 7.98795 31.7648 7.98892C31.7177 7.98988 31.6712 8.0003 31.6281 8.01956C31.585 8.03882 31.5461 8.06654 31.5137 8.1011C31.4813 8.13566 31.456 8.17637 31.4394 8.22086C31.4228 8.26535 31.4151 8.31274 31.4168 8.36026C31.4185 8.40777 31.4296 8.45448 31.4493 8.49764C31.4691 8.5408 31.4972 8.57957 31.532 8.61168C31.5668 8.64378 31.6076 8.66859 31.652 8.68466L32.3172 8.93748ZM34.9792 9.94962C35.0229 9.96622 35.0695 9.97398 35.1161 9.97245C35.1628 9.97093 35.2088 9.96014 35.2513 9.94072C35.2939 9.9213 35.3322 9.89361 35.3641 9.85925C35.3961 9.82489 35.421 9.78453 35.4375 9.74046C35.4539 9.69639 35.4616 9.64948 35.4601 9.60242C35.4586 9.55535 35.4479 9.50904 35.4286 9.46614C35.4094 9.42324 35.3819 9.38459 35.3478 9.35239C35.3138 9.32019 35.2737 9.29507 35.23 9.27847L34.5647 9.02564C34.521 9.00901 34.4745 9.00122 34.4279 9.00271C34.3812 9.00421 34.3353 9.01495 34.2927 9.03433C34.2502 9.05372 34.2118 9.08136 34.1799 9.11569C34.1479 9.15001 34.123 9.19035 34.1065 9.23439C34.09 9.27843 34.0823 9.32532 34.0837 9.37237C34.0852 9.41942 34.0959 9.46572 34.1151 9.50862C34.1343 9.55152 34.1617 9.59018 34.1958 9.62239C34.2298 9.65461 34.2698 9.67975 34.3135 9.69638L34.9792 9.94962ZM25.2709 2.91498C25.3175 2.91847 25.3643 2.91268 25.4086 2.89794C25.453 2.8832 25.494 2.85979 25.5294 2.82905C25.5648 2.79832 25.5939 2.76085 25.6149 2.7188C25.6359 2.67675 25.6485 2.63094 25.652 2.58398C25.6555 2.53701 25.6497 2.48982 25.6351 2.4451C25.6205 2.40037 25.5972 2.35899 25.5668 2.32331C25.5363 2.28763 25.4991 2.25835 25.4574 2.23715C25.4157 2.21595 25.3703 2.20324 25.3237 2.19975L24.6147 2.14694C24.5671 2.14145 24.5188 2.14573 24.4729 2.15951C24.427 2.17328 24.3843 2.19628 24.3474 2.22712C24.3105 2.25795 24.2802 2.29599 24.2582 2.33894C24.2363 2.38189 24.2232 2.42887 24.2197 2.47705C24.2162 2.52524 24.2224 2.57364 24.238 2.61934C24.2535 2.66504 24.2781 2.7071 24.3102 2.74299C24.3422 2.77889 24.3812 2.80787 24.4246 2.82821C24.4681 2.84855 24.5152 2.85982 24.5631 2.86134L25.2721 2.91456L25.2709 2.91498ZM28.1077 3.12747C28.1547 3.1318 28.2021 3.12665 28.2471 3.11232C28.2921 3.098 28.3338 3.07478 28.3698 3.04403C28.4059 3.01329 28.4354 2.97562 28.4569 2.93323C28.4783 2.89084 28.4911 2.84457 28.4946 2.79712C28.4981 2.74968 28.4922 2.702 28.4773 2.65688C28.4623 2.61176 28.4386 2.57009 28.4075 2.5343C28.3764 2.49852 28.3385 2.46933 28.2961 2.44845C28.2537 2.42756 28.2076 2.41539 28.1605 2.41265L27.4511 2.35943C27.358 2.35401 27.2665 2.3857 27.1964 2.44766C27.1262 2.50962 27.083 2.59689 27.0761 2.69066C27.0692 2.78443 27.0991 2.87719 27.1593 2.94894C27.2196 3.02069 27.3054 3.06569 27.3983 3.07424L28.1077 3.12747ZM30.9442 3.33996C30.9912 3.34429 31.0386 3.33914 31.0836 3.32481C31.1286 3.31049 31.1703 3.28727 31.2063 3.25653C31.2423 3.22578 31.2719 3.18811 31.2933 3.14572C31.3147 3.10333 31.3276 3.05706 31.3311 3.00961C31.3346 2.96217 31.3287 2.9145 31.3137 2.86937C31.2988 2.82425 31.275 2.78258 31.2439 2.74679C31.2128 2.71101 31.175 2.68182 31.1326 2.66094C31.0902 2.64005 31.0441 2.62788 30.997 2.62514L30.288 2.57025C30.241 2.56593 30.1936 2.57108 30.1486 2.5854C30.1036 2.59973 30.0619 2.62294 30.0259 2.65369C29.9899 2.68444 29.9603 2.7221 29.9389 2.7645C29.9174 2.80689 29.9046 2.85315 29.9011 2.9006C29.8976 2.94804 29.9035 2.99572 29.9184 3.04084C29.9334 3.08596 29.9571 3.12763 29.9882 3.16342C30.0193 3.19921 30.0572 3.22839 30.0996 3.24928C30.142 3.27016 30.1881 3.28233 30.2352 3.28507L30.9442 3.3383V3.33996ZM33.7811 3.55245C33.828 3.55678 33.8754 3.55163 33.9204 3.5373C33.9654 3.52298 34.0071 3.49976 34.0432 3.46902C34.0792 3.43827 34.1087 3.4006 34.1302 3.35821C34.1516 3.31582 34.1644 3.26955 34.1679 3.2221C34.1714 3.17466 34.1655 3.12699 34.1506 3.08186C34.1356 3.03674 34.1119 2.99507 34.0808 2.95928C34.0497 2.9235 34.0119 2.89431 33.9695 2.87343C33.9271 2.85254 33.881 2.84037 33.8338 2.83763L33.1248 2.78441C33.0783 2.78091 33.0314 2.7867 32.9871 2.80144C32.9427 2.81619 32.9017 2.8396 32.8663 2.87033C32.8309 2.90107 32.8019 2.93853 32.7808 2.98058C32.7598 3.02263 32.7472 3.06845 32.7437 3.11541C32.7403 3.16237 32.746 3.20956 32.7606 3.25429C32.7752 3.29902 32.7985 3.3404 32.829 3.37608C32.8594 3.41176 32.8966 3.44103 32.9383 3.46223C32.98 3.48343 33.0255 3.49614 33.072 3.49964L33.7811 3.55245ZM36.6179 3.76536C36.712 3.77241 36.805 3.74151 36.8765 3.67943C36.9479 3.61736 36.992 3.5292 36.999 3.43435C37.006 3.33951 36.9754 3.24574 36.9138 3.17369C36.8522 3.10163 36.7648 3.05718 36.6707 3.05012L35.9613 2.9969C35.8672 2.98984 35.7742 3.02075 35.7027 3.08282C35.6313 3.1449 35.5872 3.23305 35.5802 3.3279C35.5732 3.42275 35.6038 3.51651 35.6654 3.58857C35.727 3.66063 35.8144 3.70507 35.9085 3.71213L36.6179 3.76536Z" fill="black"/>
</svg>
