<svg width="27" height="29" viewBox="0 0 27 29" fill="none" xmlns="http://www.w3.org/2000/svg">
<path fill-rule="evenodd" clip-rule="evenodd" d="M22.6764 8.09229V3.06986C22.6764 2.54333 22.2964 2.03212 21.5925 1.59459C20.0753 0.651726 17.0201 0 13.5002 0C9.9799 0 6.92471 0.651726 5.40776 1.59459C4.70358 2.03212 4.32395 2.54333 4.32395 3.06986V8.09229C2.75661 8.56698 1.54042 9.16361 0.810269 9.83066C0.279789 10.3148 0 10.8407 0 11.3832V16.5898V16.5944C0.000312967 16.6743 0.00687718 16.7541 0.0190829 16.8327C0.027533 16.8859 0.0384999 16.9387 0.0519575 16.9905C0.0619724 17.0287 0.0732302 17.0665 0.0857489 17.1036C0.0951379 17.1314 0.105163 17.1587 0.115491 17.1861C0.19561 17.3909 0.311089 17.579 0.445039 17.7498C0.468198 17.7792 0.491668 17.8082 0.516079 17.8365C0.548002 17.874 0.580864 17.9109 0.614664 17.9471C0.658793 17.9943 0.70418 18.04 0.750499 18.0847C0.810589 18.1424 0.872855 18.1978 0.936075 18.2516C1.01776 18.3207 1.10195 18.3866 1.18771 18.4498C1.29756 18.5307 1.41053 18.6069 1.52539 18.6797C1.67249 18.7726 1.82303 18.8593 1.97576 18.9415C2.16917 19.0455 2.36634 19.1416 2.56601 19.2316C2.81889 19.3457 3.07552 19.4501 3.33466 19.5469C3.66014 19.6685 3.98939 19.778 4.32145 19.8788L4.32395 19.8794V25.9301C4.32395 26.4567 4.70358 26.9679 5.40776 27.4054C6.92471 28.3483 9.9799 29 13.5002 29C17.0201 29 20.0753 28.3483 21.5925 27.4054C22.2964 26.9679 22.6764 26.4567 22.6764 25.9301V19.8794L22.6789 19.8788C23.0106 19.778 23.3402 19.6685 23.6656 19.5469C23.9248 19.4501 24.1814 19.3457 24.434 19.2316C24.6336 19.1416 24.8308 19.0455 25.0245 18.9415C25.1773 18.8593 25.3278 18.7726 25.4746 18.6797C25.5898 18.6069 25.7024 18.5307 25.8123 18.4498C25.8984 18.3866 25.9822 18.3207 26.0639 18.2516C26.1274 18.1978 26.1894 18.1424 26.2495 18.0847C26.2961 18.04 26.3415 17.9943 26.3856 17.9471C26.4191 17.9109 26.4523 17.874 26.4842 17.8365C26.5083 17.8082 26.5321 17.7792 26.555 17.7498C26.6902 17.5777 26.8063 17.3883 26.8864 17.1816C26.8967 17.1545 26.9067 17.1271 26.9158 17.0994C26.9283 17.0622 26.9393 17.0244 26.9493 16.9863C26.9624 16.9341 26.9734 16.8816 26.9815 16.8285C26.9937 16.7496 27 16.6697 27 16.5898V11.3832C27 10.8407 26.7202 10.3148 26.19 9.83066C25.4596 9.16361 24.2434 8.56698 22.6764 8.09229ZM22.3634 19.971C19.9974 20.6436 16.8952 21.0534 13.5002 21.0534C10.1051 21.0534 7.00295 20.6436 4.63692 19.971V25.9301C4.63692 26.3664 4.98463 26.7631 5.56801 27.1257C7.0546 28.0493 10.0509 28.674 13.5002 28.674C16.9494 28.674 19.9457 28.0493 21.4323 27.1257C22.0157 26.7631 22.3634 26.3664 22.3634 25.9301V19.971ZM0.312967 12.3593V16.5898C0.312967 17.2569 0.835311 17.8714 1.72696 18.4257C2.40954 18.8498 3.3065 19.2316 4.3709 19.557C4.39907 19.528 4.43787 19.5104 4.48043 19.5104C4.55398 19.5104 4.61564 19.5635 4.63254 19.6346C6.98199 20.315 10.0919 20.7274 13.5002 20.7274C16.9084 20.7274 20.0183 20.315 22.3678 19.6346C22.3844 19.5635 22.446 19.5104 22.5199 19.5104C22.5624 19.5104 22.6009 19.528 22.6291 19.557C23.6938 19.2316 24.5905 18.8498 25.273 18.4257C26.165 17.8714 26.687 17.2569 26.687 16.5898V12.3593C26.4245 12.7623 26.001 13.1463 25.4333 13.4988C23.1965 14.8889 18.6907 15.8468 13.5002 15.8468C8.30959 15.8468 3.8038 14.8889 1.56671 13.4988C0.999299 13.1463 0.575547 12.7623 0.312967 12.3593ZM22.6764 10.8358C22.6764 11.3623 22.2964 11.8735 21.5925 12.3111C20.0753 13.2539 17.0201 13.9057 13.5002 13.9057C9.9799 13.9057 6.92471 13.2539 5.40776 12.3111C4.70358 11.8735 4.32395 11.3623 4.32395 10.8358V8.43201C2.85332 8.88518 1.70786 9.44432 1.01651 10.0758C0.566779 10.4863 0.312967 10.9232 0.312967 11.3832C0.312967 12.0502 0.835311 12.6648 1.72696 13.219C3.93369 14.59 8.38032 15.5208 13.5002 15.5208C18.6197 15.5208 23.0666 14.59 25.273 13.219C26.165 12.6648 26.687 12.0502 26.687 11.3832C26.687 10.9232 26.4335 10.4863 25.9838 10.0758C25.2924 9.44432 24.147 8.88518 22.6764 8.43201V10.8358ZM22.3634 3.88721C22.1816 4.11901 21.9227 4.34038 21.5925 4.54545C20.0753 5.48832 17.0201 6.14005 13.5002 6.14005C9.9799 6.14005 6.92471 5.48832 5.40776 4.54545C5.07758 4.34038 4.81875 4.11901 4.63692 3.88721V10.8358C4.63692 11.272 4.98463 11.6688 5.56801 12.0313C7.0546 12.955 10.0509 13.5796 13.5002 13.5796C16.9494 13.5796 19.9457 12.955 21.4323 12.0313C22.0157 11.6688 22.3634 11.272 22.3634 10.8358V3.88721ZM13.5002 0.326026C16.9494 0.326026 19.9457 0.950691 21.4323 1.87432C22.0157 2.23686 22.3634 2.63364 22.3634 3.06986C22.3634 3.50608 22.0157 3.90286 21.4323 4.2654C19.9457 5.18935 16.9494 5.81402 13.5002 5.81402C10.0509 5.81402 7.0546 5.18935 5.56801 4.2654C4.98463 3.90286 4.63692 3.50608 4.63692 3.06986C4.63692 2.63364 4.98463 2.23686 5.56801 1.87432C7.0546 0.950691 10.0509 0.326026 13.5002 0.326026ZM13.5002 0.796481C10.3479 0.796481 7.61168 1.26954 6.25341 1.95355C5.88097 2.14101 5.60805 2.34739 5.44719 2.56093C5.32356 2.72492 5.26222 2.89641 5.26222 3.06986C5.26222 3.24363 5.32356 3.4148 5.44719 3.57911C5.60805 3.79266 5.88097 3.99871 6.25341 4.18617C7.61168 4.8705 10.3479 5.34356 13.5002 5.34356C16.652 5.34356 19.3883 4.8705 20.7469 4.18617C21.1194 3.99871 21.3922 3.79266 21.5528 3.57911C21.6764 3.4148 21.7378 3.24363 21.7378 3.06986C21.7378 2.89641 21.6764 2.72492 21.5528 2.56093C21.3922 2.34739 21.1194 2.14101 20.7469 1.95355C19.3883 1.26954 16.652 0.796481 13.5002 0.796481ZM19.7564 1.90432V4.2354C18.2892 4.71368 16.0308 5.01754 13.5002 5.01754C10.9695 5.01754 8.71113 4.71368 7.24394 4.2354V1.90432C8.71113 1.42636 10.9695 1.12251 13.5002 1.12251C16.0308 1.12251 18.2892 1.42636 19.7564 1.90432ZM6.93097 2.01354V4.12651C6.73193 4.05218 6.55072 3.97393 6.38955 3.89275C6.12039 3.75712 5.90882 3.614 5.76548 3.46239C5.6453 3.33557 5.57519 3.20646 5.57519 3.06986C5.57519 2.93358 5.6453 2.80415 5.76548 2.67732C5.90882 2.52572 6.12039 2.3826 6.38955 2.2473C6.55072 2.16579 6.73193 2.08787 6.93097 2.01354ZM20.0693 2.01354C20.2684 2.08787 20.4493 2.16579 20.6108 2.2473C20.8799 2.3826 21.0915 2.52572 21.2348 2.67732C21.3547 2.80415 21.4248 2.93358 21.4248 3.06986C21.4248 3.20646 21.3547 3.33557 21.2348 3.46239C21.0915 3.614 20.8799 3.75712 20.6108 3.89275C20.4493 3.97393 20.2684 4.05218 20.0693 4.12651V2.01354Z" fill="black"/>
</svg>
