<svg width="36" height="30" viewBox="0 0 36 30" fill="none" xmlns="http://www.w3.org/2000/svg">
<path d="M24.0273 19.8454C24.4266 19.8454 24.8926 19.6362 25.2822 19.2452C25.9097 18.6156 26.0673 17.7874 25.641 17.3597C25.2148 16.932 24.3894 17.0902 23.7619 17.7197C23.1344 18.3494 22.9768 19.1776 23.4031 19.6053C23.5647 19.7675 23.7835 19.8454 24.0273 19.8454ZM24.166 18.1252C24.4552 17.835 24.7866 17.6909 25.0156 17.6909C25.1105 17.6909 25.1878 17.7157 25.237 17.7652C25.4052 17.9338 25.2874 18.4293 24.8782 18.8399C24.469 19.2505 23.9752 19.3685 23.8072 19.1999C23.6391 19.0312 23.7568 18.5358 24.166 18.1252ZM27.5487 16.3119C27.948 16.3119 28.414 16.1027 28.8036 15.7117C29.431 15.0821 29.5887 14.2539 29.1624 13.8262C28.7362 13.3985 27.9108 13.5567 27.2833 14.1862C26.6558 14.8159 26.4982 15.6441 26.9245 16.0718C27.0861 16.234 27.3049 16.3119 27.5487 16.3119ZM27.6874 14.5918C27.9766 14.3016 28.308 14.1574 28.537 14.1574C28.6319 14.1574 28.7092 14.1822 28.7584 14.2317C28.9266 14.4003 28.8088 14.8958 28.3996 15.3064C27.9904 15.717 27.4966 15.8351 27.3286 15.6664C27.1604 15.4978 27.2782 15.0024 27.6874 14.5918ZM30.8047 10.6528C30.1772 11.2825 30.0196 12.1107 30.4459 12.5384C30.6075 12.7005 30.8263 12.7785 31.0701 12.7785C31.4694 12.7785 31.9354 12.5693 32.325 12.1783C32.9524 11.5487 33.1101 10.7205 32.6838 10.2928C32.2575 9.86503 31.4322 10.0232 30.8047 10.6528ZM31.9209 11.7729C31.5117 12.1835 31.018 12.3015 30.8499 12.133C30.6818 11.9643 30.7996 11.4689 31.2087 11.0583C31.4979 10.768 31.8294 10.6239 32.0583 10.6239C32.1532 10.6239 32.2305 10.6487 32.2798 10.6982C32.4479 10.8668 32.3301 11.3623 31.9209 11.7729ZM20.5059 23.3789C20.9052 23.3789 21.3712 23.1697 21.7608 22.7787C22.3883 22.1491 22.5459 21.3209 22.1196 20.8931C21.6934 20.4654 20.868 20.6237 20.2405 21.2532C19.613 21.8828 19.4554 22.7111 19.8817 23.1388C20.0433 23.301 20.2621 23.3789 20.5059 23.3789ZM20.6446 21.6587C20.9339 21.3685 21.2653 21.2244 21.4942 21.2244C21.5892 21.2244 21.6664 21.2492 21.7157 21.2987C21.8839 21.4673 21.7661 21.9628 21.3569 22.3734C20.9477 22.784 20.454 22.902 20.2859 22.7334C20.1177 22.5647 20.2354 22.0693 20.6446 21.6587ZM17.6656 24.2243C17.3367 24.3046 17.0007 24.5043 16.7193 24.7867C16.4378 25.0691 16.2387 25.4064 16.1587 25.7363C16.0678 26.1112 16.1413 26.4524 16.3603 26.6723C16.522 26.8344 16.7408 26.9124 16.9846 26.9124C17.3839 26.9124 17.8499 26.7032 18.2395 26.3122C18.8669 25.6826 19.0246 24.8544 18.5983 24.4266C18.3792 24.2068 18.0393 24.1331 17.6656 24.2243ZM17.8354 25.9068C17.4262 26.3174 16.9325 26.4355 16.7644 26.2668C16.6896 26.1919 16.6713 26.0479 16.7139 25.8719C16.7687 25.646 16.9178 25.3983 17.1232 25.1922C17.3286 24.9862 17.5755 24.8364 17.8006 24.7815C17.8627 24.7664 17.9208 24.7588 17.9733 24.7588C18.069 24.7588 18.1459 24.7837 18.1942 24.8321C18.3624 25.0007 18.2446 25.4962 17.8354 25.9068ZM24.9865 15.5345C25.614 14.9049 25.7716 14.0767 25.3453 13.6489C24.919 13.2212 24.0937 13.3794 23.4662 14.009C22.8387 14.6386 22.6811 15.4668 23.1074 15.8946C23.269 16.0567 23.4878 16.1347 23.7316 16.1347C24.1309 16.1347 24.5969 15.9255 24.9865 15.5345ZM23.8703 14.4144C24.1595 14.1242 24.4909 13.9801 24.7199 13.9801C24.8148 13.9801 24.8921 14.0049 24.9413 14.0544C25.1095 14.223 24.9917 14.7185 24.5825 15.1291C24.1733 15.5397 23.6795 15.6577 23.5115 15.4891C23.3434 15.3205 23.4611 14.825 23.8703 14.4144ZM28.5079 12.0011C29.1354 11.3715 29.293 10.5432 28.8667 10.1155C28.6477 9.89578 28.3077 9.82203 27.9339 9.91319C27.6051 9.99346 27.269 10.1932 26.9875 10.4756C26.3601 11.1052 26.2024 11.9334 26.6287 12.3612C26.7903 12.5233 27.0092 12.6012 27.2529 12.6012C27.6522 12.6012 28.1183 12.392 28.5079 12.0011ZM27.3917 10.881C27.5971 10.6749 27.844 10.5252 28.069 10.4703C28.1312 10.4551 28.1893 10.4476 28.2418 10.4476C28.3375 10.4476 28.4144 10.4725 28.4627 10.521C28.6308 10.6896 28.513 11.1851 28.1038 11.5957C27.6946 12.0062 27.2009 12.1244 27.0328 11.9557C26.8647 11.787 26.9825 11.2916 27.3917 10.881ZM21.4651 19.068C21.7465 18.7855 21.9456 18.4483 22.0256 18.1184C22.1165 17.7434 22.043 17.4022 21.8239 17.1823C21.3977 16.7548 20.5723 16.9129 19.9449 17.5424C19.3174 18.172 19.1598 19.0003 19.586 19.428C19.7477 19.5901 19.9665 19.6681 20.2103 19.6681C20.6095 19.6681 21.0755 19.459 21.4651 19.068ZM20.3489 17.9479C20.6381 17.6577 20.9695 17.5136 21.1985 17.5136C21.2934 17.5136 21.3707 17.5384 21.42 17.5879C21.4947 17.6628 21.5131 17.8068 21.4704 17.9828C21.4157 18.2087 21.2665 18.4564 21.0611 18.6625C20.6519 19.0731 20.1582 19.1911 19.9901 19.0226C19.822 18.854 19.9397 18.3585 20.3489 17.9479ZM17.9438 22.6015C18.5712 21.9719 18.7288 21.1436 18.3026 20.7159C17.8763 20.2882 17.051 20.4464 16.4235 21.076C15.796 21.7056 15.6384 22.5338 16.0646 22.9616C16.2263 23.1237 16.4451 23.2016 16.6889 23.2016C17.0882 23.2016 17.5541 22.9924 17.9438 22.6015ZM16.8275 21.4814C17.1167 21.1912 17.4481 21.0471 17.6771 21.0471C17.772 21.0471 17.8493 21.0719 17.8986 21.1213C18.0667 21.29 17.9489 21.7854 17.5397 22.196C17.1305 22.6066 16.6368 22.7248 16.4687 22.5561C16.3006 22.3874 16.4183 21.892 16.8275 21.4814ZM27.4601 18.0165C27.1786 18.2989 26.9795 18.6362 26.8995 18.9661C26.8086 19.3411 26.8821 19.6822 27.1012 19.902C27.2587 20.0601 27.4787 20.1426 27.7288 20.1426C27.8266 20.1426 27.929 20.13 28.034 20.1043C28.3628 20.0241 28.6989 19.8243 28.9804 19.5419C29.6078 18.9123 29.7655 18.0841 29.3392 17.6564C28.9129 17.2287 28.0875 17.387 27.4601 18.0165ZM28.5762 19.1366C28.3709 19.3426 28.124 19.4924 27.8989 19.5473C27.7234 19.5902 27.58 19.5716 27.5053 19.4967C27.4305 19.4217 27.4121 19.2777 27.4548 19.1017C27.5096 18.8758 27.6587 18.6281 27.8641 18.422C28.1533 18.1318 28.4848 17.9876 28.7137 17.9876C28.8086 17.9876 28.8859 18.0124 28.9351 18.0619C29.1031 18.2305 28.9854 18.726 28.5762 19.1366ZM30.9814 14.483C30.3539 15.1127 30.1963 15.9409 30.6226 16.3686C30.7801 16.5266 31.0001 16.6092 31.2502 16.6092C31.348 16.6092 31.4504 16.5966 31.5553 16.5709C31.8841 16.4907 32.2202 16.2909 32.5017 16.0085C33.1292 15.3789 33.2868 14.5507 32.8605 14.123C32.4343 13.6953 31.6089 13.8534 30.9814 14.483ZM32.0976 15.6031C31.8922 15.8091 31.6453 15.9589 31.4202 16.0138C31.2448 16.0566 31.1013 16.0381 31.0266 15.9631C30.8585 15.7945 30.9763 15.299 31.3855 14.8884C31.6747 14.5982 32.0061 14.4541 32.2351 14.4541C32.33 14.4541 32.4073 14.4789 32.4565 14.5283C32.6245 14.697 32.5068 15.1925 32.0976 15.6031ZM23.9387 21.55C23.3112 22.1796 23.1536 23.0079 23.5798 23.4356C23.7413 23.5977 23.9603 23.6756 24.204 23.6756C24.6032 23.6756 25.0693 23.4664 25.4589 23.0754C26.0864 22.4458 26.244 21.6176 25.8177 21.1899C25.3916 20.7623 24.5661 20.9204 23.9387 21.55ZM25.0548 22.67C24.6456 23.0806 24.152 23.1986 23.9838 23.0301C23.8157 22.8614 23.9335 22.366 24.3427 21.9554C24.6319 21.6652 24.9633 21.5211 25.1922 21.5211C25.2871 21.5211 25.3644 21.5458 25.4137 21.5953C25.5818 21.764 25.464 22.2594 25.0548 22.67ZM20.4173 25.0835C20.1358 25.3659 19.9367 25.7032 19.8567 26.0331C19.7658 26.4081 19.8393 26.7493 20.0584 26.9691C20.2199 27.1313 20.4389 27.2092 20.6826 27.2092C21.0818 27.2092 21.5479 27 21.9375 26.609C22.565 25.9794 22.7226 25.1511 22.2963 24.7234C21.8702 24.2956 21.0448 24.4538 20.4173 25.0835ZM21.5334 26.2035C21.1243 26.6141 20.6303 26.7322 20.4624 26.5636C20.3876 26.4886 20.3692 26.3446 20.4119 26.1686C20.4667 25.9427 20.6159 25.695 20.8213 25.4889C21.1105 25.1987 21.4419 25.0545 21.6708 25.0545C21.7657 25.0545 21.843 25.0793 21.8923 25.1288C22.0604 25.2975 21.9426 25.7929 21.5334 26.2035ZM2.57182 12.0857C3.80433 12.9069 5.05048 13.2577 5.68359 13.3936C5.74745 13.4073 5.81137 13.4141 5.87458 13.4141C6.17293 13.4141 6.45477 13.2654 6.6259 13.0068L7.0536 12.3605C7.21666 12.1141 7.25066 11.8142 7.14702 11.5375C7.08924 11.3833 6.99346 11.2531 6.87168 11.1535L9.17935 7.66618C9.24913 7.68668 9.3202 7.70453 9.39248 7.71958C9.46133 8.17741 9.65204 8.58987 9.97159 8.91052C10.3757 9.31603 10.9358 9.52589 11.5637 9.52589C11.8504 9.52589 12.1514 9.48152 12.458 9.39265L14.0795 11.0197C13.5483 12.5204 14.1811 13.7417 14.4809 14.201C12.9996 16.0795 11.8274 17.9898 11.0723 19.7809C9.86546 22.644 9.8646 24.8869 11.0699 26.0963L14.0569 29.0936C14.6592 29.6979 15.5184 30.0001 16.5836 30C17.6501 30 18.9232 29.697 20.3507 29.0911C23.1229 27.9145 26.1814 25.7295 28.9627 22.9385C31.7441 20.1476 33.9217 17.0786 35.0942 14.297C36.3011 11.4338 36.302 9.19097 35.0966 7.98146L32.1096 4.98421C30.9043 3.77499 28.6689 3.77571 25.8158 4.98665C24.0307 5.74428 22.1271 6.92053 20.255 8.40697C19.7973 8.1061 18.5802 7.4711 17.0846 8.00418L15.4631 6.37712C15.7457 5.39567 15.5714 4.47284 14.9827 3.88214C14.6631 3.56156 14.2522 3.3702 13.7959 3.30111C13.6913 2.79619 13.4548 2.34904 13.1049 1.99786C12.5691 1.46026 11.8252 1.19758 10.9999 1.24998C10.7882 0.962076 10.5294 0.715244 10.2287 0.514926C9.54597 0.0600346 8.72758 -0.100937 7.92434 0.061898C7.12095 0.22459 6.42891 0.69145 5.97558 1.37655L1.75979 7.74739C1.62101 7.67335 1.46423 7.63529 1.30017 7.64175C1.00583 7.65321 0.743553 7.80114 0.58049 8.04747L0.152797 8.69379C-0.054621 9.00721 -0.0505498 9.4082 0.163082 9.71538C0.533635 10.2482 1.33938 11.2645 2.57182 12.0857ZM34.568 14.0735C33.4235 16.7887 31.2893 19.7931 28.5587 22.533C25.8282 25.273 22.8342 27.4145 20.1282 28.5629C17.5416 29.6609 15.476 29.7065 14.461 28.688C13.4461 27.6696 13.4916 25.5969 14.5856 23.0013C15.7302 20.2861 17.8643 17.2818 20.5949 14.5418C23.3255 11.8018 26.3195 9.66034 29.0254 8.51189C31.6121 7.41405 33.6778 7.36839 34.6926 8.38683C35.7075 9.40519 35.6621 11.478 34.568 14.0735ZM26.0384 5.51464C27.384 4.94357 28.5884 4.65725 29.5774 4.65725C30.4896 4.65725 31.2187 4.901 31.7056 5.38965L33.4661 7.15625C32.2473 6.92203 30.6556 7.19753 28.8028 7.9839C26.0306 9.16051 22.9722 11.3455 20.1908 14.1364C17.4094 16.9274 15.2318 19.9964 14.0593 22.778C13.2756 24.6371 13.0011 26.2344 13.2344 27.4574L11.4739 25.6908C10.459 24.6724 10.5044 22.5997 11.5985 20.0041C12.743 17.2889 14.8772 14.2845 17.6078 11.5445C20.3385 8.8046 23.3325 6.66316 26.0384 5.51464ZM19.7885 8.78431C18.912 9.50653 18.0452 10.2949 17.2038 11.1391C16.3624 11.9834 15.5768 12.8531 14.8571 13.7326C14.4769 13.0851 13.8495 11.4521 15.6826 9.61275C17.516 7.77297 19.1437 8.40317 19.7885 8.78431ZM15.2785 9.20731C14.8537 9.63361 14.5459 10.0534 14.3285 10.4586L12.379 8.50251C11.7734 7.89467 11.7734 6.90569 12.379 6.29793C12.9848 5.69009 13.9705 5.69016 14.5761 6.29793L16.5256 8.2541C16.1219 8.47212 15.7034 8.78102 15.2785 9.20731ZM14.9877 5.89994L14.9801 5.89235C14.1516 5.06104 12.8035 5.06097 11.975 5.89235C11.1465 6.72372 11.1465 8.07643 11.975 8.9078L11.9826 8.9154C11.3335 9.02684 10.7532 8.88379 10.3756 8.50494C9.57768 7.70424 9.87124 6.10693 11.03 4.94415C12.1888 3.78137 13.7808 3.4868 14.5786 4.28751C14.9562 4.66635 15.0988 5.24875 14.9877 5.89994ZM12.7008 2.40322C12.9388 2.64203 13.1086 2.94075 13.2019 3.27853C12.3387 3.33551 11.3939 3.76811 10.626 4.53871C9.85803 5.30931 9.42691 6.25736 9.37012 7.1235C9.03357 7.02982 8.73587 6.85946 8.49781 6.62066C7.57371 5.69339 7.7647 3.99308 8.92343 2.83038C9.49233 2.25945 10.2047 1.90433 10.9292 1.83029C11.632 1.75848 12.2611 1.96195 12.7008 2.40322ZM6.45163 1.69376C6.82054 1.13624 7.38372 0.756311 8.0374 0.623865C8.69108 0.491346 9.35705 0.62236 9.91267 0.992536C10.0713 1.09825 10.2151 1.22023 10.3438 1.35641C9.67768 1.53035 9.04392 1.89859 8.51938 2.42494C7.8577 3.08889 7.44536 3.927 7.35837 4.78497C7.26908 5.66479 7.53029 6.46076 8.09369 7.02617C8.25696 7.19001 8.44138 7.32855 8.64237 7.44093L6.3382 10.923C5.7233 10.7395 4.88085 10.415 4.0456 9.85858C3.21029 9.30199 2.58539 8.64878 2.17834 8.15132L6.45163 1.69376ZM1.05654 8.36475C1.11682 8.27366 1.21367 8.21898 1.32238 8.21475C1.43145 8.21066 1.53244 8.25768 1.59987 8.34404C2.02392 8.88809 2.73767 9.67532 3.72962 10.3363C4.7215 10.9971 5.72152 11.3518 6.38577 11.5329C6.49127 11.5616 6.57376 11.6369 6.61212 11.7393C6.6504 11.8414 6.63776 11.9523 6.57748 12.0434L6.14985 12.6897C6.07429 12.8037 5.93465 12.8613 5.80316 12.833C5.20962 12.7056 4.04175 12.3769 2.88787 11.6081C1.73408 10.8393 0.979042 9.88667 0.63163 9.38727C0.55442 9.27633 0.553277 9.1251 0.628774 9.01101L1.05654 8.36475Z" fill="black"/>
</svg>
