<svg width="26" height="35" viewBox="0 0 26 35" fill="none" xmlns="http://www.w3.org/2000/svg">
<path d="M26 18.6216V15.8108C26 15.6169 25.8426 15.4595 25.6486 15.4595H9.13513V0.351351C9.13513 0.157405 8.97773 0 8.78378 0H0.351351C0.157405 0 0 0.157405 0 0.351351V18.6216C0 22.6038 1.8987 24.6909 4.21622 26.7814V34.0811C4.21622 34.275 4.37362 34.4324 4.56757 34.4324H24.2432C24.3585 34.4324 24.466 34.3755 24.5321 34.2807C24.5981 34.1858 24.6122 34.0649 24.5721 33.9567L21.8456 26.7252C24.1357 24.6536 26 22.5687 26 18.6216ZM25.2973 16.1622V18.2703H9.13513V16.1622H25.2973ZM8.43243 0.702703V2.81081H0.702703V0.702703H8.43243ZM21.1977 26.364C21.0902 26.461 21.0523 26.6135 21.1036 26.7498L23.7352 33.7304H4.91892V26.6254C4.91892 26.5256 4.87605 26.4308 4.80227 26.364C2.08351 23.9249 0.702703 22.0578 0.702703 18.6216V3.51351H8.43243V18.6216C8.43243 18.8156 8.58984 18.973 8.78378 18.973H25.2924C25.1996 22.1878 23.8223 24.0092 21.1977 26.364Z" fill="black"/>
<path d="M7.3786 7.02699H6.28871C6.12568 6.22591 5.41595 5.62158 4.56779 5.62158C3.59947 5.62158 2.81104 6.41001 2.81104 7.37834C2.81104 8.34666 3.59947 9.1351 4.56779 9.1351C5.41595 9.1351 6.12568 8.53077 6.28871 7.72969H7.3786C7.57255 7.72969 7.72995 7.57228 7.72995 7.37834C7.72995 7.18439 7.57255 7.02699 7.3786 7.02699ZM4.56779 8.43239C3.98666 8.43239 3.51374 7.95947 3.51374 7.37834C3.51374 6.7972 3.98666 6.32428 4.56779 6.32428C5.14893 6.32428 5.62185 6.7972 5.62185 7.37834C5.62185 7.95947 5.14893 8.43239 4.56779 8.43239Z" fill="black"/>
</svg>
