<svg width="332" height="321" viewBox="0 0 332 321" fill="none" xmlns="http://www.w3.org/2000/svg">
<g clip-path="url(#clip0_287_96)">
<path d="M147.346 -4.03687C150.52 8.56895 146.536 21.9607 135.856 33.3603C120.37 49.8899 94.9785 50.7175 77.879 34.6976C57.9295 16.0077 56.4959 -11.0218 77.3218 -33.2512C101.886 -59.4705 139.031 -55.7081 170.95 -25.8042C218.829 19.0515 219.386 87.0003 169.796 142.217L161.816 134.741C198.836 83.8021 192.585 27.6431 147.346 -4.03687Z" fill="#2F2D2C"/>
<path d="M293.48 237.476C289.439 225.121 292.483 211.485 302.346 199.371C316.646 181.806 341.919 179.217 360.09 194.011C381.289 211.27 384.597 238.135 365.365 261.757C342.681 289.619 305.364 288.445 271.445 260.83C220.567 219.408 215.292 151.662 260.928 93.1347L269.407 100.038C236.015 153.425 246.151 209.014 293.48 237.476Z" fill="#2F2D2C"/>
</g>
<defs>
<clipPath id="clip0_287_96">
<rect width="332" height="321" fill="white"/>
</clipPath>
</defs>
</svg>
